name processed_emg_signals
nRows=30
nColumns=7
 
endheader
time	RGLTMED	RRF	RADDLONG	RBF	RTA	RGM
0.1578	-0.002606719665162	-0.0116905902006317	0.0002108212835597	-0.020322897332272	-0.1185943565524641	-0.00142789333595
0.1678	-0.0022087156808094	-0.0110201191018248	0.0004208653578653	-0.0191841864736126	-0.1052856921330239	-0.0003362174566095
0.1778	-0.0018121800551245	-0.0103483426413907	0.0006313121467053	-0.0179908200108065	-0.0919652365312344	0.0007597282820685
0.18780000000000002	-0.001417341270869	-0.0096755277090466	0.0008420521380616	-0.016742147354135	-0.0786399479355064	0.0018592790372167
0.19780000000000003	-0.0010244247367162	-0.0090019385057699	0.0010529761554883	-0.015437557012783	-0.06531679804795	0.0029617599671682
0.20780000000000004	-0.0006336524334316	-0.008327836200341	0.001263975529629	-0.0140764782081561	-0.0520027650395081	0.0040664868218695
0.21780000000000005	-0.0002452425692649	-0.0076534786026292	0.0014749422674288	-0.0126583824749775	-0.0387048266056305	0.0051727665437733
0.22780000000000006	0.0001405907542335	-0.0069791198549832	0.0016857692184663	-0.0111827852475803	-0.0254299531365768	0.006279897878362
0.23780000000000007	0.0005236378648044	-0.0063050101428832	0.0018963502379126	-0.0096492474286751	-0.0121851010152507	0.0073871719934832
0.24780000000000008	0.0009036938293534	-0.0056313954258015	0.0021065803456661	-0.0080573769377631	0.001022793945653	0.0084938731067129
0.2578000000000001	0.0012805587500542	-0.0049585171890452	0.0023163558812461	-0.0064068302362343	0.0141868229166152	0.0095992791200087
0.2678000000000001	0.0016540380457087	-0.0042866122172311	0.0025255746540541	-0.0046973138260918	0.0273001103051025	0.0107026622609678
0.2778000000000001	0.0020239427174824	-0.0036159123899296	0.0027341360886287	-0.002928585719138	0.0403558198422956	0.0118032897300621
0.2878000000000001	0.0023900895982312	-0.0029466444998951	0.0029419413645535	-0.0011004568733686	0.0533471604961054	0.0129004243532411
0.2978000000000001	0.0027523015847391	-0.0022790300941359	0.0031488935507108	0.000787207406747	0.0662673922051179	0.0139933252393261
0.30780000000000013	0.0031104078522951	-0.0016132853378878	0.0033548977336234	0.0027344861094888	0.0791098314292726	0.0150812484416416
0.31780000000000014	0.0034642440511699	-0.0009496209013712	0.0035598611396636	0.0047414011980416	0.0918678565140792	0.0161634476233849
0.32780000000000015	0.0038136524846606	-0.0002882418690333	0.0037636932509433	0.0068079163390708	0.1045349128661197	0.017239174726308
0.33780000000000016	0.0041584822685005	0.0003706523291874	0.003966305914737	0.0089339356812389	0.1171045179385614	0.0183076806423904
0.34780000000000016	0.0044985894715177	0.0010268679651801	0.0041676134463215	0.011119302687226	0.1295702660264329	0.0193682158882768
0.3578000000000002	0.0048338372375336	0.0016802170392859	0.0043675327251697	0.0133637990228585	0.1419258328723403	0.0204200312823575
0.3678000000000002	0.0051640958885572	0.0023305172870331	0.0045659832844645	0.0156671435069572	0.1541649800840628	0.0214623786244325
0.3778000000000002	0.0054892430094077	0.0029775921668452	0.0047628873939348	0.0180289911255238	0.1662815593662022	0.0224945113779938
0.3878000000000002	0.0058091635139655	0.0036212708296325	0.0049581701360295	0.0204489321138609	0.1782695165688826	0.0235156853552279
0.3978000000000002	0.0061237496933389	0.0042613880712083	0.0051517594754758	0.0229264911102017	0.1901228955573239	0.0245251594049295
0.4078000000000002	0.0064329012463096	0.0048977842685108	0.0053435863222804	0.0254611263843853	0.2018358419067328	0.0255221961035613
0.4178000000000002	0.0067365252924801	0.0055303053006328	0.0055335845882429	0.0280522291450693	0.2134026064273559	0.0265060624497323
0.42780000000000024	0.0070345363685941	0.0061588024556987	0.0057216912370521	0.030699122928912	0.224817548524879	0.0274760305623575
0.43780000000000024	0.0073268564085605	0.0067831323246296	0.0059078463280309	0.0334010630750817	0.2360751394017576	0.0284313783827444
0.44780000000000025	0.007613414707756	0.0074031566828447	0.0060919930535842	0.0361572362883721	0.2471699651055375	0.0293713903808304
